<svg width="19" height="23" viewBox="0 0 19 23" fill="none" xmlns="http://www.w3.org/2000/svg">
<path d="M15.8 12.0981C15.8 9.35304 18.1 8.07853 18.2 7.98049C16.9 6.11774 14.9 5.92166 14.2 5.82362C12.5 5.62755 10.9 6.80402 9.99996 6.80402C9.09996 6.80402 7.79996 5.82362 6.39996 5.82362C4.59996 5.92166 2.89996 7.0001 1.89996 8.56872C-4.1306e-05 11.804 1.39996 16.706 3.29996 19.353C4.19996 20.6275 5.29996 22.0981 6.69996 22.0981C8.09996 22.0001 8.59996 21.2158 10.3 21.2158C12 21.2158 12.4 22.0981 13.9 22.0981C15.4 22.0981 16.3 20.8236 17.2 19.4511C18.3 17.9805 18.7 16.5099 18.7 16.4119C18.7 16.4119 15.8 15.3334 15.8 12.0981Z" fill="white"/>
<path d="M13.1 4.15696C13.8 3.27461 14.4 2.0001 14.2 0.725586C13.1 0.725586 11.8 1.41186 11 2.39225C10.3 3.17657 9.69996 4.45108 9.79996 5.62755C11 5.72559 12.3 5.03931 13.1 4.15696Z" fill="white"/>
</svg>