<svg width="140" height="49" viewBox="0 0 140 49" fill="none" xmlns="http://www.w3.org/2000/svg">
<path d="M120.091 23.4788V29.7847C120.091 31.4504 120.051 32.7989 119.932 33.83C119.813 34.8612 119.654 35.6147 119.456 36.1303C119.258 36.6062 118.98 36.8442 118.663 36.8442C118.544 36.8442 118.385 36.8442 118.227 36.8045C118.068 36.7649 117.909 36.7649 117.751 36.7252V37.796C117.87 37.8357 118.028 37.8754 118.147 37.8754C118.266 37.915 118.385 37.915 118.465 37.915C118.584 37.915 118.703 37.915 118.822 37.915C119.258 37.915 119.654 37.796 119.972 37.5184C120.289 37.2408 120.567 36.8442 120.805 36.2493C121.003 35.6941 121.201 34.9405 121.28 34.0283C121.399 33.1162 121.439 32.0057 121.439 30.7365V24.6289H126.992V37.7167H128.34V23.4788H120.091Z" fill="white"/>
<path fill-rule="evenodd" clip-rule="evenodd" d="M112.238 36.8442C115.371 36.8442 116.72 33.7111 116.72 30.5779C116.72 27.4844 115.371 24.3116 112.238 24.3116C109.105 24.3116 107.756 27.4844 107.756 30.5779C107.756 33.7111 109.065 36.8442 112.238 36.8442ZM112.238 23.1615C115.966 23.1615 117.83 26.6912 117.83 30.5779C117.83 34.4646 115.966 37.9943 112.238 37.9943C108.51 37.9943 106.646 34.4646 106.646 30.5779C106.606 26.6912 108.47 23.1615 112.238 23.1615Z" fill="white"/>
<path fill-rule="evenodd" clip-rule="evenodd" d="M93.2408 23.4788H94.9065L99.0312 35.932L103.116 23.4788H104.782V37.7167H103.671V25.3824H103.632L99.5467 37.7167H98.4759L94.4306 25.3824H94.3909V37.7167H93.2408V23.4788Z" fill="white"/>
<path d="M131.711 23.4788V29.7847C131.711 31.4504 131.671 32.7989 131.552 33.83C131.433 34.8612 131.314 35.6147 131.076 36.1303C130.878 36.6062 130.601 36.8442 130.283 36.8442C130.164 36.8442 130.006 36.8442 129.847 36.8045C129.688 36.7649 129.53 36.7649 129.371 36.7252V37.796C129.53 37.8357 129.649 37.8754 129.768 37.8754C129.887 37.915 130.006 37.915 130.085 37.915C130.204 37.915 130.323 37.915 130.442 37.915C130.878 37.915 131.275 37.796 131.592 37.5184C131.909 37.2408 132.187 36.8442 132.425 36.2493C132.623 35.6941 132.782 34.9405 132.901 34.0283C133.02 33.1162 133.059 32.0057 133.059 30.7365V24.6289H138.612V37.7167H139.96V23.4788H131.711Z" fill="white"/>
<path fill-rule="evenodd" clip-rule="evenodd" d="M48.2663 37.7167H52.2323L52.7875 35.6941H56.8725L57.4278 37.7167H61.5127L56.8329 23.4391H52.9462L48.2663 37.7167ZM53.6997 32.6402L54.9292 28.238H54.9688L56.119 32.6402H53.6997Z" fill="white"/>
<path d="M87.0538 23.4788L82.4929 31.6487L82.7309 28V23.4788H78.7252V37.7167H82.6119L87.2125 29.5467L86.9745 33.1955V37.7167H90.9405V23.4788H87.0538Z" fill="white"/>
<path d="M71.3881 28.3966H71.9433C72.3796 28.3966 72.6969 28.4759 72.9745 28.5949C73.2521 28.7535 73.4504 28.9518 73.5694 29.2691C73.6884 29.5467 73.7677 29.9433 73.7677 30.3796C73.7677 30.7762 73.728 31.1331 73.6091 31.4504C73.4901 31.7677 73.3314 31.966 73.0935 32.1643C72.8555 32.3229 72.5779 32.4023 72.221 32.4023H71.4278V28.3966H71.3881ZM67.2238 32.4023H66.4306C66.0736 32.4023 65.7564 32.3229 65.5581 32.1643C65.3201 32.0057 65.1615 31.7677 65.0425 31.4504C64.9235 31.1331 64.8838 30.7762 64.8838 30.3796C64.8838 29.9433 64.9235 29.5467 65.0425 29.2691C65.1615 28.9915 65.3598 28.7535 65.5977 28.5949C65.8753 28.4363 66.1926 28.3966 66.6289 28.3966H67.1841V32.4023H67.2238ZM67.2238 23.3994V25.0652H66.2323C65.3201 25.0652 64.4872 25.2238 63.813 25.5014C63.1388 25.779 62.5836 26.1756 62.1473 26.6516C61.711 27.1275 61.3938 27.7224 61.1558 28.3569C60.9575 28.9915 60.8385 29.7054 60.8385 30.4193C60.8385 31.2125 60.9575 31.8867 61.1558 32.5609C61.3541 33.1955 61.6714 33.7507 62.1076 34.2266C62.5439 34.7026 63.0991 35.0595 63.7734 35.3371C64.4476 35.6147 65.2408 35.7337 66.153 35.7337H67.1841V37.7167H71.3881V35.7337H72.4193C73.3314 35.7337 74.1246 35.5751 74.7989 35.3371C75.4731 35.0595 76.0283 34.7026 76.4646 34.2266C76.9008 33.7507 77.2181 33.1955 77.4164 32.5609C77.6147 31.9263 77.7337 31.2125 77.7337 30.4193C77.7337 29.6657 77.6147 28.9915 77.4164 28.3569C77.2181 27.7224 76.9008 27.1275 76.4249 26.6516C75.9887 26.136 75.4334 25.779 74.7592 25.5014C74.085 25.2238 73.2918 25.0652 72.3399 25.0652H71.3881V23.3994H67.2238Z" fill="white"/>
<path fill-rule="evenodd" clip-rule="evenodd" d="M16.3796 16.4986H19.83V26.5722C16.5382 25.3824 16.4589 20.9405 16.3796 16.4986Z" fill="white"/>
<path fill-rule="evenodd" clip-rule="evenodd" d="M22.6062 16.4986H26.0963C26.0567 20.5836 27.1275 23.5581 28.5156 26.2153C29.3088 23.6771 28.6346 19.6317 28.8725 16.4986H32.3626C32.6402 21.5354 31.4504 25.0652 28.8725 27.2861C29.4674 29.2295 29.9037 31.3315 29.9037 33.8697H26.4136C26.4533 29.6657 25.3428 26.6119 23.9943 23.796C23.2011 26.4533 23.8754 30.6176 23.6374 33.8697H20.1473C20.1473 29.2295 20.5042 24.9462 23.6374 23.4391C23.0028 21.4561 22.6856 19.1162 22.6062 16.4986Z" fill="white"/>
<path fill-rule="evenodd" clip-rule="evenodd" d="M37.3598 41.4051C36.3286 44.0227 36.3683 47.83 39.898 47.83C41.8414 47.83 43.0708 46.204 43.7054 44.221L43.8244 43.8244C44.1813 42.7139 44.1416 42.238 43.1105 42.4363L43.2295 42C43.6261 41.762 44.0227 41.6827 44.3796 41.6827C45.1728 41.7224 45.8074 42.3173 45.3711 43.7054L44.5382 46.3626C44.2606 47.3541 44.6176 47.7507 44.8952 47.7507C45.6091 47.711 46.4419 46.7195 46.6799 45.9263L47.7111 42.6346C47.9887 41.762 48.5836 41.4448 49.4958 41.8414L48.068 46.2833C47.7904 47.0765 47.7904 47.9093 48.3456 47.9093C48.5836 47.9093 48.8612 47.711 49.0992 47.4731C49.2975 47.2351 49.4958 46.9575 49.6544 46.7195L50.5666 43.8244C50.9235 42.7139 50.8839 42.238 49.8527 42.4363L49.9717 42C50.3683 41.762 50.7649 41.6827 51.1218 41.6827C51.6374 41.7224 52.1133 42 52.2323 42.5949C52.6686 41.8414 53.1048 41.6827 53.6601 41.6827C54.6119 41.6827 55.1671 42.1983 55.3258 42.8725H55.3654C55.881 41.881 56.3173 41.6431 56.9122 41.6827C58.3796 41.6827 58.8952 42.9122 58.4986 44.1416L57.7847 46.2833C57.5071 47.0765 57.5071 47.9093 58.0623 47.9093C58.3003 47.9093 58.5779 47.711 58.8159 47.4731C59.0142 47.2748 59.1728 46.9972 59.3314 46.7989C59.3314 46.6006 59.3711 46.4023 59.4504 46.204L60.204 43.8244C60.5609 42.7139 60.5212 42.238 59.4901 42.4363L59.6091 42C60.0057 41.762 60.4023 41.6827 60.7592 41.6827C61.5524 41.7224 62.187 42.3173 61.7904 43.7054L60.9575 46.3626C60.6799 47.3541 61.0368 47.7507 61.3145 47.7507C62.0283 47.711 62.8612 46.7195 63.0992 45.9263L64.1303 42.6346C64.4079 41.762 65.0028 41.4448 65.915 41.8414L64.4873 46.2833C64.2096 47.0765 64.2096 47.9093 64.7649 47.9093C65.0028 47.9093 65.2805 47.711 65.5184 47.4731C65.7564 47.2351 65.9547 46.9178 66.1133 46.6799L66.4306 46.9178C66.2323 47.2748 66.1133 47.5127 65.8754 47.7904C65.4788 48.2663 64.9235 48.6629 64.2493 48.6629C63.3371 48.6629 62.9405 48.1076 62.9009 47.4731H62.8612C62.3456 48.4646 61.5921 48.6629 60.9972 48.6629C60.085 48.6629 59.5297 48.187 59.3314 47.5127C59.2521 47.5921 59.2125 47.711 59.1331 47.7904C58.7365 48.2663 58.1813 48.6629 57.5071 48.6629C56.0793 48.6629 55.762 47.6317 56.1586 46.4023L56.9122 43.983C57.1898 42.9915 56.8329 42.5949 56.5552 42.5949C55.881 42.5949 55.3654 43.5071 55.1275 44.2606L54.0567 47.6317C53.779 48.5042 53.7394 48.5439 52.2323 48.5439L53.6997 43.9433C53.9773 42.9518 53.6204 42.5552 53.3428 42.5552C52.6289 42.5552 52.1133 43.5864 51.8754 44.3796L50.8442 47.6317C50.5666 48.5042 50.5269 48.5439 49.0198 48.5439L49.1785 48.0283C48.8215 48.3853 48.3456 48.6232 47.7904 48.6232C46.8782 48.6232 46.4816 48.068 46.4419 47.4334H46.4023C45.8867 48.4249 45.1332 48.6232 44.5382 48.6232C43.4674 48.6232 42.9122 47.9887 42.8329 47.1955C42.119 48.0283 41.0878 48.6629 39.8187 48.6629C35.6544 48.6232 34.2663 44.8555 35.2975 41.0482C32.6799 40.3739 31.5298 38.3909 31.6487 36.5666C31.7677 34.4646 33.5524 33.3144 35.3371 33.5524C36.4476 33.6714 38.153 35.0595 36.9632 36.4079C36.6062 35.4561 35.6544 34.9008 34.7422 34.9802C32.0057 35.1785 31.5694 39.3824 35.5751 40.4136C36.6856 37.4788 39.2635 34.9008 42.5156 34.8215C44.6969 34.7819 46.085 36.3683 44.7762 38.3116C44.2606 39.0652 43.3088 39.6997 42.238 40.2153C40.6912 40.9688 38.7082 41.3654 37.3598 41.4051ZM37.5184 40.7705C38.5496 40.7309 40.3343 40.4136 41.881 39.6997C42.4759 39.4221 43.5467 38.7875 44.102 37.915C44.8555 36.6855 44.0623 35.813 42.6346 36.0906C40.4929 36.4476 38.5099 38.4306 37.5184 40.7705Z" fill="white"/>
<path fill-rule="evenodd" clip-rule="evenodd" d="M24.272 37.4787C26.3739 37.4787 28.3569 36.9632 30.1416 36.0906C30.2606 36.0113 30.4193 35.9717 30.4986 36.0113C30.5779 36.051 30.6176 36.0906 30.5779 36.2493C30.5382 36.4079 30.5382 36.6062 30.5382 36.7649C30.3796 39.1841 31.8867 41.0481 33.9887 41.9207C33.7507 43.2295 33.7507 44.6176 34.1473 45.847C34.3456 46.4419 34.306 46.4419 33.7111 46.6799C30.8159 47.9093 27.6431 48.5836 24.3116 48.5836C10.9065 48.5836 0.0793228 37.7167 0.0793228 24.3513C0.0793228 10.9462 10.9462 0.0793228 24.3116 0.0793228C37.7167 0.0793228 48.5439 10.9462 48.5439 24.3513C48.5439 27.8414 47.7904 31.2125 46.4419 34.187C46.2833 34.5042 46.204 34.7819 46.0057 34.8215C45.8867 34.8215 45.728 34.7025 45.5297 34.5042C44.7762 33.9093 43.745 33.6317 42.7932 33.6714C41.2861 33.711 39.898 34.2266 38.7082 35.0198C38.5892 34.3059 38.153 33.6714 37.5184 33.1558C37.0425 32.7989 36.4476 32.5212 35.813 32.4419C34.8612 32.3229 34.7422 32.2833 35.1785 31.6487C36.5666 29.5467 37.3994 27.0482 37.3994 24.3116C37.3994 17.0538 31.5297 11.1841 24.272 11.1841C17.0142 11.1841 11.1445 17.0538 11.1445 24.3116C11.1445 31.6091 17.0538 37.4787 24.272 37.4787ZM29.9037 37.0028L29.7847 37.0425C29.6261 37.0821 29.5071 37.1615 29.4278 37.2011C29.2691 37.2804 29.0708 37.3201 28.9122 37.3994C28.3569 38.3116 27.762 39.1841 27.0878 39.9773C27.762 40.255 28.3966 40.4929 29.0708 40.6912C29.745 40.8895 30.4193 41.0878 31.1331 41.2465L31.847 41.3654C31.9263 41.3654 31.966 41.3654 32.0453 41.4051C31.6091 41.0482 31.2521 40.6119 30.9348 40.1756C30.221 39.2238 29.9037 38.153 29.9037 37.0028ZM32.4816 41.8017C32.085 41.881 31.7677 41.8017 31.4901 41.7224C31.0935 42.5949 29.7054 44.1416 28.9915 44.8555C30.102 45.3711 32.3229 46.2436 33.5524 46.1643C33.1558 44.9348 33.1161 43.5864 33.2748 42.3173C32.9972 42.1586 32.7196 42 32.4816 41.8017ZM45.847 34.0283C45.966 33.9093 46.0453 33.711 46.085 33.5921L41.762 31.8074C41.8414 32.2436 41.9207 32.7195 41.9603 33.1558C42.238 33.1161 42.4759 33.1161 42.7535 33.0765C43.6657 33.0368 44.6176 33.2748 45.4108 33.711C45.4901 33.7507 45.8074 33.9887 45.847 34.0283ZM41.5637 33.1955C41.5241 32.7195 41.4448 32.2833 41.3654 31.8074C40.7309 32.204 40.0963 32.6006 39.4221 32.9575C39.1445 33.1161 38.8669 33.2351 38.5892 33.3541C38.7875 33.5921 38.9462 33.83 39.0652 34.1076C39.8584 33.6714 40.6912 33.3541 41.5637 33.1955ZM38.272 33.0368C38.5892 32.8782 38.9065 32.7195 39.1841 32.5609C39.8187 32.2436 40.4136 31.8867 41.0085 31.4901L36.9632 29.8244C36.8839 29.983 36.8045 30.1813 36.7252 30.3399C36.7252 30.3399 36.4476 31.0538 36.2493 31.2521C36.2096 31.2918 36.2096 31.2918 36.17 31.3711C36.0907 31.5297 35.9717 31.728 35.8527 31.8867C36.5666 31.966 37.2408 32.2833 37.796 32.7195C38.034 32.7989 38.153 32.9178 38.272 33.0368ZM9.00284 6.22663C9.75638 6.22663 10.5099 6.50425 11.0652 7.05949C11.4221 7.41643 11.6601 7.89235 11.8187 8.36827C11.9377 7.93201 12.0567 7.49575 12.2153 7.05949C12.1756 6.06799 12.0963 5.15581 11.5014 4.36261C10.6289 4.95751 9.79604 5.59207 9.00284 6.22663ZM11.9773 11.0652V11.3428C12.8895 11.2635 13.8017 11.2635 14.7139 11.3428C14.9915 10.6289 15.3088 9.95467 15.6657 9.28045C16.0227 8.60623 16.3796 7.97167 16.7762 7.33711C15.4674 7.09915 14.1586 6.98017 12.9292 6.98017C12.4929 8.28895 12.1756 9.63739 11.9773 11.0652ZM11.9377 11.9773C11.8584 12.8499 11.8187 13.6827 11.898 14.5156C12.5326 14.2776 13.1671 14.0793 13.8414 13.881C14.0397 13.2068 14.238 12.5722 14.4759 11.9377C13.6034 11.898 12.7705 11.898 11.9377 11.9773ZM8.36827 11.898C7.85269 11.779 7.41643 11.5411 7.01983 11.1445C6.46459 10.5892 6.18697 9.83569 6.18697 9.12181V9.08215C5.51275 9.87535 4.91785 10.6686 4.36261 11.5807C5.11615 12.1756 6.06799 12.255 7.09915 12.2946C7.49575 12.136 7.93201 12.017 8.36827 11.898ZM9.04249 6.90085C8.68555 6.90085 8.32861 6.98017 8.01133 7.17847C7.69405 7.49575 7.37677 7.77337 7.09915 8.09065C6.94051 8.40793 6.86119 8.76487 6.86119 9.12181C6.86119 9.67705 7.05949 10.272 7.49575 10.7082C8.05099 11.2635 8.80453 11.4221 9.67706 11.4221C9.51842 11.3428 9.35977 11.2238 9.2408 11.0652C8.92351 10.7479 8.72521 10.3909 8.60623 9.99433C8.48725 9.59773 8.48725 9.16147 8.60623 8.76487L8.64589 8.64589L8.76487 8.60623C9.16148 8.48725 9.59774 8.52691 9.99434 8.60623C10.3909 8.72521 10.7479 8.92351 11.0652 9.24079C11.1841 9.35977 11.3031 9.47875 11.3824 9.59773C11.3428 8.76487 11.1445 8.01133 10.6686 7.53541C10.1926 7.09915 9.63739 6.90085 9.04249 6.90085ZM10.4306 11.2635C10.7082 11.3428 11.0255 11.3428 11.3031 11.3031C11.3031 11.1841 11.3428 11.0652 11.3428 10.9462C11.3428 10.7479 11.3031 10.5892 11.2635 10.3909C11.1841 10.0737 10.9858 9.75637 10.7479 9.51841C10.5099 9.28045 10.1926 9.08215 9.87536 9.00283C9.59774 8.92351 9.28046 8.92351 8.96317 8.96317C8.92351 9.24079 8.92352 9.55807 9.00284 9.87535C9.08216 10.1926 9.2408 10.5099 9.51842 10.7479C9.79604 11.0255 10.0737 11.1841 10.4306 11.2635ZM6.06799 12.6119C5.35411 12.5326 4.71955 12.3739 4.12465 11.898C3.68839 12.6119 3.25213 13.3654 2.89519 14.1586C3.92635 13.5637 4.95751 13.0482 6.06799 12.6119ZM12.5722 6.10765C12.4929 5.43343 12.3343 4.79887 11.898 4.20397C12.6119 3.76771 13.3654 3.37111 14.119 3.01417C13.4844 3.96601 12.9688 4.99717 12.5722 6.10765ZM0.674224 22.3286C1.22946 21.7734 1.94335 21.4561 2.73655 21.4561C3.25213 21.4561 3.72805 21.6147 4.20397 21.8527C3.96601 21.4561 3.76771 21.0595 3.52975 20.6629C2.77621 19.9887 2.10199 19.3938 1.15014 19.2748C0.912184 20.3059 0.753544 21.3371 0.674224 22.3286ZM6.18697 23.6374C6.26629 23.7167 6.30595 23.7564 6.38527 23.8357C6.98017 23.1615 7.61473 22.4872 8.28895 21.8923C8.01133 21.1785 7.73371 20.4646 7.49575 19.7507C7.25779 19.0368 7.09915 18.3229 6.94051 17.6091C5.86969 18.3626 4.83853 19.1955 3.96601 20.068C4.56091 21.3371 5.31445 22.5269 6.18697 23.6374ZM6.82153 24.3513V24.3909C7.37677 25.0255 7.97167 25.6204 8.60623 26.1756C8.88385 25.5807 9.20113 24.9462 9.51842 24.3513C9.20113 23.7564 8.88385 23.1615 8.60623 22.5269C7.93201 23.1218 7.33711 23.7167 6.82153 24.3513ZM4.24363 26.8102C3.80737 27.0878 3.29179 27.2465 2.77621 27.2465C1.98301 27.2465 1.26912 26.9292 0.753544 26.4136L0.713884 26.3739C0.793204 27.4051 0.951844 28.4363 1.1898 29.4278C2.14165 29.3088 2.85553 28.6742 3.60907 28C3.76771 27.5637 4.00567 27.1671 4.24363 26.8102ZM1.15014 22.7649C0.912184 23.0028 0.713884 23.3201 0.594904 23.677C0.594904 24.1133 0.594904 24.5496 0.594904 24.9858C0.713884 25.3428 0.912184 25.6601 1.15014 25.898C1.54674 26.2946 2.10199 26.5722 2.73655 26.5722C3.49009 26.5722 4.16431 26.136 4.79887 25.5411C4.60057 25.5807 4.44193 25.6204 4.24363 25.6204C3.80737 25.6204 3.41077 25.5014 3.05383 25.3031C2.69689 25.1048 2.37961 24.7875 2.18131 24.4306L2.10199 24.3116L2.14165 24.1926C2.33995 23.8357 2.65723 23.5184 3.01417 23.3201C3.37111 23.1218 3.76771 23.0028 4.20397 23.0028C4.36261 23.0028 4.52125 23.0028 4.67989 23.0425C4.04533 22.4872 3.41077 22.0906 2.69689 22.0906C2.14165 22.1303 1.5864 22.3683 1.15014 22.7649ZM5.23513 24.9065C5.51275 24.7479 5.71105 24.5496 5.90935 24.3116C5.83003 24.2323 5.75071 24.153 5.71105 24.034C5.59207 23.915 5.43343 23.796 5.27479 23.677C4.99717 23.5184 4.64023 23.4391 4.28329 23.4391C3.92635 23.4391 3.60907 23.5184 3.29179 23.677C3.01417 23.8357 2.81587 24.034 2.61757 24.2719C2.77621 24.5099 3.01417 24.7082 3.29179 24.8669C3.56941 25.0255 3.92635 25.1445 4.28329 25.1445C4.60057 25.1841 4.95751 25.0652 5.23513 24.9065ZM3.13315 28.9518C2.57791 29.3881 1.98301 29.745 1.26912 29.8244C1.46742 30.6572 1.70539 31.4901 1.98301 32.2833C2.26063 31.1331 2.65723 30.0227 3.13315 28.9518ZM3.09349 19.711C2.53825 19.2748 1.98301 18.9575 1.26912 18.8385C1.46742 18.0453 1.70539 17.2125 1.98301 16.4193C2.26063 17.5694 2.61757 18.6799 3.09349 19.711ZM6.18697 39.6204C6.18697 38.8668 6.46459 38.1133 7.01983 37.5581C7.37677 37.2011 7.85269 36.9632 8.32861 36.8045C7.89235 36.6855 7.45609 36.5666 7.01983 36.4079C6.02833 36.4476 5.11615 36.5269 4.36261 37.1218C4.91785 37.9943 5.51275 38.8272 6.18697 39.6204ZM10.9858 36.6459C11.0652 36.6459 11.1841 36.6459 11.2635 36.6459C11.1841 35.7337 11.1841 34.8215 11.2635 33.9093C10.5496 33.6317 9.87536 33.3144 9.20114 32.9575C8.52691 32.6006 7.89235 32.2436 7.25779 31.847C7.01983 33.1558 6.90085 34.4646 6.90085 35.694C8.20963 36.17 9.59774 36.4872 10.9858 36.6459ZM11.9377 36.6855C12.8102 36.7649 13.6431 36.8045 14.4759 36.7252C14.238 36.0906 14.0397 35.4561 13.8414 34.7819C13.1671 34.5836 12.5326 34.3853 11.898 34.1473C11.8584 35.0198 11.8584 35.8527 11.9377 36.6855ZM11.8187 40.255C11.6997 40.7705 11.4618 41.2068 11.0652 41.6034C10.5099 42.1586 9.75638 42.4363 9.04249 42.4363H9.00284C9.79604 43.1105 10.6289 43.7054 11.5014 44.2606C12.0963 43.5071 12.136 42.5552 12.2153 41.5241C12.0567 41.1275 11.9377 40.6912 11.8187 40.255ZM6.82153 39.5807C6.82153 39.9377 6.90085 40.2946 7.05949 40.6119C7.37677 40.9292 7.65439 41.2464 7.97167 41.5241C8.28895 41.6827 8.6459 41.8017 9.00284 41.8017C9.55808 41.8017 10.153 41.5637 10.5892 41.1671C11.1048 40.6516 11.3031 39.8584 11.3031 38.9858C11.2238 39.1445 11.1048 39.3031 10.9462 39.4221C10.6289 39.7394 10.272 39.9377 9.87536 40.0566C9.47875 40.1756 9.04249 40.1756 8.64589 40.0566L8.52691 40.017L8.48725 39.898C8.36827 39.5014 8.40793 39.0651 8.48725 38.6685C8.60623 38.2719 8.80453 37.915 9.12181 37.5977C9.2408 37.4787 9.35978 37.3598 9.47875 37.2804C8.64589 37.3201 7.89235 37.5184 7.41643 37.9943C7.05949 38.4306 6.82153 39.0255 6.82153 39.5807ZM11.2238 38.2323C11.3031 37.9547 11.3031 37.6374 11.2635 37.3598C11.1445 37.3598 11.0255 37.3201 10.9065 37.3201C10.7082 37.3201 10.5496 37.3598 10.3513 37.3994C10.034 37.4787 9.71672 37.677 9.47875 37.915C9.2408 38.153 9.04249 38.4702 8.96317 38.7875C8.88385 39.0652 8.88385 39.3824 8.92351 39.66C9.20113 39.6997 9.51842 39.6997 9.8357 39.6204C10.153 39.5411 10.4703 39.3428 10.7082 39.1048C10.9462 38.8668 11.1048 38.5496 11.2238 38.2323ZM12.5722 42.5552C12.4929 43.2691 12.3343 43.9037 11.8584 44.4986C12.5722 44.9348 13.3258 45.3314 14.119 45.728C13.5241 44.7365 13.0085 43.6657 12.5722 42.5552ZM6.02833 36.0906C5.35411 36.17 4.71955 36.3286 4.12465 36.7649C3.68839 36.051 3.29179 35.2974 2.93485 34.5439C3.92635 35.1388 4.95751 35.6544 6.02833 36.0906ZM22.289 47.949C21.7337 47.3938 21.4164 46.6799 21.4164 45.8867C21.4164 45.3711 21.5751 44.8952 21.813 44.4193C21.4164 44.6572 21.0198 44.8555 20.6232 45.0935C19.949 45.847 19.3541 46.5212 19.2351 47.4731C20.2266 47.711 21.2578 47.8697 22.289 47.949ZM23.5581 42.4363C23.6374 42.3569 23.6771 42.3173 23.7564 42.238C23.0822 41.6431 22.4079 41.0085 21.813 40.2946C21.0992 40.5722 20.3853 40.8498 19.6714 41.0878C18.9575 41.3258 18.2436 41.4844 17.5297 41.6431C18.2833 42.7535 19.1161 43.745 19.9887 44.6176C21.2578 44.0623 22.4476 43.3088 23.5581 42.4363ZM24.272 41.8414H24.3116C24.9462 41.2861 25.5411 40.6912 26.0963 40.0566C25.4618 39.779 24.8669 39.4617 24.272 39.1445C23.6771 39.4617 23.0822 39.779 22.4476 40.0566C23.0425 40.6912 23.6374 41.2861 24.272 41.8414ZM26.7309 44.4193C27.0085 44.8555 27.1671 45.3711 27.1671 45.8867C27.1671 46.6799 26.8499 47.3938 26.3343 47.9093V47.949C27.3654 47.8697 28.3966 47.711 29.3881 47.4731C29.2691 46.5212 28.6346 45.8074 27.9603 45.0538C27.5241 44.8555 27.1275 44.6176 26.7309 44.4193ZM22.7252 47.4731C22.9632 47.711 23.2805 47.9093 23.6374 48.0283C24.0737 48.0283 24.5099 48.0283 24.9462 48.0283C25.3031 47.9093 25.6204 47.711 25.8584 47.4731C26.255 47.0765 26.5326 46.5212 26.5326 45.8867C26.5326 45.1331 26.0963 44.4589 25.5014 43.8244C25.5411 44.0227 25.5807 44.1813 25.5807 44.3796C25.5807 44.8159 25.4618 45.2125 25.2635 45.5694C25.0652 45.9263 24.7479 46.2436 24.3909 46.4419L24.272 46.5212L24.153 46.4419C23.796 46.2436 23.4788 45.9263 23.2805 45.5694C23.0822 45.2125 22.9632 44.8159 22.9632 44.3796C22.9632 44.221 22.9632 44.0623 23.0028 43.9037C22.4476 44.5382 22.051 45.1728 22.051 45.8867C22.051 46.5212 22.289 47.0765 22.7252 47.4731ZM24.8669 43.3881C24.7082 43.1501 24.5099 42.9122 24.272 42.7535C24.1926 42.8329 24.1133 42.9122 23.9943 42.9518C23.8754 43.0708 23.7564 43.2295 23.6374 43.3881C23.4788 43.6657 23.3598 44.0227 23.3598 44.3796C23.3598 44.7365 23.4391 45.0935 23.6374 45.3711C23.796 45.6487 23.9943 45.847 24.2323 46.0453C24.4703 45.8867 24.6686 45.6487 24.8272 45.3711C24.9858 45.0935 25.0652 44.7365 25.0652 44.3796C25.1048 44.0227 25.0255 43.7054 24.8669 43.3881ZM28.8725 45.5297C29.3088 46.085 29.6657 46.6799 29.745 47.3938C30.5779 47.1955 31.4108 46.9575 32.204 46.6799C31.0935 46.3626 29.9433 46.0057 28.8725 45.5297ZM19.6714 45.5694C19.2351 46.1246 18.9178 46.6799 18.7989 47.3938C18.0057 47.1955 17.1728 46.9575 16.3796 46.6799C17.4901 46.4023 18.6006 46.0057 19.6714 45.5694ZM47.8697 26.3739C47.3144 26.9292 46.6006 27.2465 45.8074 27.2465C45.2918 27.2465 44.8159 27.0878 44.3399 26.8499C44.5779 27.2465 44.7762 27.6431 44.9745 28.0397C45.728 28.7139 46.4023 29.3088 47.3541 29.4278C47.6317 28.3966 47.7904 27.3654 47.8697 26.3739ZM42.3966 25.0652C42.3569 24.9858 42.2776 24.9462 42.238 24.8669C41.6431 25.5411 41.0085 26.2153 40.2946 26.8102C40.5722 27.5241 40.8499 28.238 41.0878 28.9518C41.3258 29.6657 41.4844 30.3796 41.6431 31.0935C42.7535 30.3399 43.745 29.5071 44.6176 28.6346C44.0227 27.3654 43.2691 26.1756 42.3966 25.0652ZM41.762 24.3513V24.3116C41.2068 23.677 40.6119 23.0821 39.9773 22.5269C39.6997 23.1615 39.3824 23.7564 39.0652 24.3513C39.3824 24.9462 39.6997 25.5411 39.9773 26.1756C40.6516 25.5807 41.2068 24.9858 41.762 24.3513ZM44.3399 21.8923C44.7762 21.6147 45.2918 21.4561 45.8074 21.4561C46.6006 21.4561 47.3144 21.7734 47.83 22.2889H47.8697C47.7904 21.2578 47.6317 20.2266 47.3938 19.2351C46.4023 19.3541 45.728 19.9887 44.9745 20.6629C44.7762 21.1388 44.5779 21.4957 44.3399 21.8923ZM47.3938 25.9377C47.6317 25.6997 47.83 25.3824 47.949 25.0255C47.949 24.5892 47.949 24.153 47.949 23.7167C47.83 23.3598 47.6317 23.0425 47.3938 22.8045C46.9972 22.4079 46.4419 22.1303 45.8074 22.1303C45.0538 22.1303 44.4193 22.5666 43.745 23.1615C43.9037 23.1218 44.102 23.0821 44.3003 23.0821C44.7365 23.0821 45.1331 23.2011 45.4901 23.3994C45.847 23.5977 46.1643 23.915 46.3626 24.2719L46.4419 24.3909L46.3626 24.5099C46.1246 24.8668 45.847 25.1841 45.4901 25.3824C45.1331 25.5807 44.7365 25.6997 44.3003 25.6997C44.1416 25.6997 43.983 25.6997 43.8244 25.6601C44.4589 26.2153 45.0935 26.6119 45.8074 26.6119C46.4419 26.5722 46.9972 26.3343 47.3938 25.9377ZM43.3484 23.796C43.0708 23.9547 42.8725 24.153 42.6742 24.3909C42.7535 24.4703 42.8329 24.5496 42.8725 24.6686C42.9915 24.7875 43.1501 24.9065 43.3088 25.0255C43.5864 25.1841 43.9433 25.2635 44.3003 25.2635C44.6572 25.2635 45.0142 25.1841 45.2918 25.0255C45.5694 24.8668 45.7677 24.6686 45.966 24.4306C45.8074 24.1926 45.5694 23.9943 45.2918 23.8357C45.0142 23.677 44.6572 23.5977 44.3003 23.5977C43.983 23.5184 43.6261 23.6374 43.3484 23.796ZM45.4504 19.7507C46.0057 19.3144 46.6006 18.9575 47.3144 18.8782C47.1161 18.0453 46.8782 17.2125 46.6006 16.4193C46.3229 17.5694 45.9263 18.6799 45.4504 19.7507ZM45.4901 28.9518C46.0453 29.3881 46.6006 29.7054 47.3144 29.8244C47.1161 30.6176 46.8782 31.4504 46.6006 32.2436C46.3229 31.1331 45.966 30.0227 45.4901 28.9518ZM42.3966 9.08215C42.3966 9.83569 42.119 10.5892 41.5637 11.1445C41.2068 11.5014 40.7309 11.7394 40.255 11.898C40.6912 12.017 41.1275 12.136 41.5637 12.2946C42.5552 12.255 43.4674 12.1756 44.221 11.5807C43.6657 10.7082 43.0708 9.87535 42.3966 9.08215ZM37.5977 12.0567C37.5184 12.0567 37.3994 12.0567 37.3201 12.0567C37.3994 12.9688 37.3994 13.881 37.3201 14.7932C38.034 15.0708 38.7082 15.3881 39.3824 15.745C40.0567 16.102 40.6912 16.4589 41.3258 16.8555C41.5637 15.5467 41.6827 14.238 41.6827 13.0085C40.3739 12.5326 38.9858 12.2153 37.5977 12.0567ZM36.6459 11.9773C35.813 11.898 34.9405 11.898 34.1077 11.9377C34.3456 12.5722 34.5439 13.2068 34.7422 13.881C35.4164 14.0793 36.051 14.2776 36.6856 14.5156C36.7252 13.6827 36.7252 12.8102 36.6459 11.9773ZM36.7252 8.44759C36.8442 7.93201 37.0822 7.49575 37.4788 7.09915C38.034 6.54391 38.7875 6.26629 39.5014 6.26629H39.5411C38.7479 5.59207 37.9547 4.99717 37.0425 4.44193C36.4476 5.19547 36.4079 6.14731 36.3286 7.17847C36.4873 7.57507 36.6459 8.01133 36.7252 8.44759ZM41.762 9.12181C41.762 8.76487 41.6827 8.40793 41.4844 8.09065C41.2068 7.77337 40.8895 7.45609 40.5722 7.17847C40.255 7.01983 39.898 6.90085 39.5411 6.90085C38.9858 6.90085 38.3909 7.13881 37.9547 7.53541C37.4391 8.05099 37.2408 8.84419 37.2408 9.71671C37.3201 9.55807 37.4391 9.39943 37.5977 9.28045C37.915 8.96317 38.272 8.76487 38.6686 8.64589C39.0652 8.52691 39.5014 8.52691 39.898 8.64589L40.017 8.68555L40.0567 8.80453C40.136 9.20113 40.136 9.63739 40.0567 10.034C39.9377 10.4306 39.7394 10.7875 39.4221 11.1048C39.3031 11.2238 39.1841 11.3031 39.0652 11.4221C39.898 11.3824 40.6516 11.1841 41.1275 10.6686C41.5241 10.2323 41.762 9.67705 41.762 9.12181ZM37.3598 10.4703C37.2805 10.7479 37.2805 11.0652 37.3201 11.3428C37.4391 11.3428 37.5581 11.3824 37.6771 11.3824C37.8754 11.3824 38.034 11.3428 38.2323 11.3031C38.5496 11.2238 38.8669 11.0255 39.1048 10.7875C39.3428 10.5496 39.5411 10.2323 39.6204 9.91501C39.6997 9.63739 39.6997 9.32011 39.6601 9.04249C39.3824 9.00283 39.0652 9.00283 38.7479 9.08215C38.4306 9.16147 38.1133 9.35977 37.8754 9.59773C37.6374 9.83569 37.4391 10.153 37.3598 10.4703ZM36.0113 6.14731C36.0907 5.43343 36.2493 4.79887 36.7252 4.20397C36.0113 3.76771 35.2578 3.33145 34.4646 2.97451C35.0595 3.96601 35.5751 5.03683 36.0113 6.14731ZM42.5552 12.6119C43.2295 12.5326 43.864 12.3739 44.4589 11.9377C44.8952 12.6516 45.2918 13.4051 45.6487 14.1586C44.6572 13.5637 43.6261 13.0482 42.5552 12.6119ZM26.2946 0.753544C26.8499 1.30878 27.1671 2.02267 27.1671 2.81587C27.1671 3.33145 27.0085 3.80737 26.7705 4.28329C27.1671 4.04533 27.5637 3.84703 27.9603 3.64873C28.6346 2.89519 29.2295 2.22097 29.3484 1.26912C28.3173 0.991504 27.3258 0.832864 26.2946 0.753544ZM24.9858 6.22663C24.9065 6.26629 24.8669 6.34561 24.7875 6.42493C25.4618 7.01983 26.136 7.65439 26.7309 8.36827C27.4448 8.09065 28.1586 7.81303 28.8725 7.57507C29.5864 7.33711 30.3003 7.17847 31.0142 7.01983C30.2606 5.90935 29.4278 4.91785 28.5552 4.04533C27.2861 4.64023 26.0963 5.35411 24.9858 6.22663ZM24.3116 6.86119H24.272C23.6374 7.41643 23.0425 8.01133 22.4873 8.64589C23.1218 8.92351 23.7167 9.24079 24.3116 9.55807C24.9065 9.24079 25.5014 8.92351 26.136 8.64589C25.5411 8.01133 24.9462 7.41643 24.3116 6.86119ZM21.8527 4.28329C21.5751 3.84703 21.4164 3.33145 21.4164 2.81587C21.4164 2.02267 21.7337 1.30878 22.2493 0.793204L22.289 0.753544C21.2578 0.832864 20.2266 0.991504 19.2351 1.1898C19.3541 2.18131 19.9887 2.85553 20.6629 3.60907C21.0595 3.84703 21.4561 4.04533 21.8527 4.28329ZM25.8584 1.22946C25.6204 0.991504 25.3031 0.793204 24.9462 0.674223C24.5099 0.674223 24.0737 0.674223 23.6374 0.674223C23.2805 0.793204 22.9632 0.991504 22.7252 1.22946C22.3286 1.62606 22.0907 2.18131 22.0907 2.81587C22.0907 3.56941 22.5269 4.24363 23.1218 4.87819C23.0822 4.71955 23.0425 4.52125 23.0425 4.32295C23.0425 3.88669 23.1615 3.49009 23.3598 3.13315C23.5581 2.77621 23.8754 2.45893 24.2323 2.26063L24.3513 2.18131L24.4703 2.26063C24.8272 2.45893 25.1445 2.77621 25.3428 3.13315C25.5411 3.49009 25.6601 3.88669 25.6601 4.32295C25.6601 4.48159 25.6601 4.64023 25.6204 4.79887C26.1756 4.16431 26.5722 3.52975 26.5722 2.81587C26.5326 2.18131 26.255 1.62606 25.8584 1.22946ZM23.7167 5.27479C23.8754 5.55241 24.0737 5.75071 24.3116 5.94901C24.3909 5.86969 24.5099 5.79037 24.5892 5.75071C24.7082 5.63173 24.8272 5.47309 24.9462 5.31445C25.1048 5.03683 25.1841 4.67989 25.1841 4.32295C25.1841 3.96601 25.1048 3.64873 24.9462 3.33145C24.7875 3.05383 24.5892 2.85553 24.3513 2.65723C24.1133 2.81587 23.915 3.05383 23.7564 3.33145C23.5977 3.60907 23.5184 3.96601 23.5184 4.32295C23.4788 4.67989 23.5581 4.99717 23.7167 5.27479ZM19.7111 3.17281C19.2748 2.61757 18.9178 2.02267 18.8385 1.30878C18.0057 1.50708 17.1728 1.74504 16.3796 2.02267C17.4901 2.30029 18.6006 2.69689 19.7111 3.17281ZM28.9122 3.13315C29.3484 2.57791 29.6657 2.02267 29.7847 1.30878C30.6176 1.50708 31.4108 1.74504 32.204 2.02267C31.0538 2.30029 29.983 2.69689 28.9122 3.13315ZM19.9887 4.04533C19.1161 4.91785 18.2833 5.90935 17.5297 7.01983C18.2436 7.17847 18.9575 7.33711 19.6714 7.57507C20.3853 7.81303 21.0992 8.05099 21.813 8.36827C22.4079 7.69405 23.0822 7.01983 23.7564 6.42493C22.5666 5.47309 21.2975 4.67989 19.9887 4.04533ZM17.1331 7.61473C16.7365 8.20963 16.3796 8.80453 16.0623 9.43909C15.745 10.0737 15.4278 10.7082 15.1501 11.3428C16.1813 11.4221 17.2521 11.6204 18.2833 11.8584C18.4419 11.779 18.6006 11.6997 18.7989 11.6204L17.1331 7.61473ZM14.9122 11.9773C14.6742 12.5722 14.4759 13.1275 14.3173 13.762C14.7932 13.6431 15.2691 13.5241 15.7847 13.4448C16.3003 13.0482 16.8555 12.6912 17.4108 12.3739C16.5382 12.1756 15.7054 12.0567 14.9122 11.9773ZM14.1586 14.238C14.0793 14.5156 14 14.8329 13.9603 15.1105C14.3173 14.7139 14.6742 14.3569 15.0708 14C14.7535 14.0793 14.4759 14.1586 14.1586 14.238ZM13.3654 15.8244C13.4448 15.3484 13.5637 14.8725 13.6827 14.3569C13.0878 14.5156 12.4929 14.7139 11.898 14.9518C11.9773 15.7847 12.0963 16.5779 12.255 17.4108C12.6119 16.8555 12.9688 16.3399 13.3654 15.8244ZM17.1728 6.70255C17.8867 5.63173 18.7195 4.67989 19.5524 3.80737C18.2436 3.25213 16.8555 2.81587 15.4278 2.53825L17.1728 6.70255ZM17.4901 7.45609C18.1643 7.61473 18.8782 7.77337 19.5524 8.01133C20.2266 8.20963 20.8612 8.44759 21.5354 8.72521C20.8612 9.51841 20.2663 10.3909 19.7111 11.3031C19.5524 11.3824 19.3541 11.4221 19.1955 11.5014L17.4901 7.45609ZM22.17 8.96317C22.7252 9.20113 23.2805 9.47875 23.8357 9.79603C23.3994 10.034 23.0028 10.3116 22.6062 10.5892C21.9717 10.6686 21.3371 10.7875 20.7026 10.9462C21.1388 10.272 21.6544 9.59773 22.17 8.96317ZM24.272 10.034C24.5496 10.1926 24.7875 10.3513 25.0652 10.5099C24.5496 10.4703 24.034 10.4703 23.5184 10.5099C23.7564 10.3513 24.034 10.1926 24.272 10.034ZM25.9773 10.5892C25.5807 10.3116 25.1445 10.034 24.7082 9.79603C25.2635 9.51841 25.8187 9.20113 26.3739 8.96317C26.8895 9.59773 27.4051 10.272 27.881 10.9462C27.2465 10.7875 26.6119 10.6686 25.9773 10.5892ZM16.8159 6.86119C15.5467 6.62323 14.3173 6.50425 13.0878 6.50425C13.6034 5.15581 14.2776 3.84703 15.0708 2.65723L16.8159 6.86119ZM6.86119 13.0482C6.86119 14.2776 6.98017 15.5864 7.21813 16.8952C7.85269 16.4986 8.48725 16.102 9.16148 15.7847C9.8357 15.4278 10.5099 15.1105 11.2238 14.8329C11.1445 13.9207 11.1445 13.0085 11.2238 12.0963C9.75638 12.2153 8.28895 12.5326 6.86119 13.0482ZM7.37677 17.5694C7.53541 18.2436 7.69405 18.9178 7.93201 19.6317C8.13031 20.3059 8.36827 20.9802 8.64589 21.6147C9.4391 20.9405 10.3116 20.3059 11.2238 19.7904C11.3031 19.6317 11.3428 19.4334 11.4221 19.2748L7.37677 17.5694ZM8.92351 22.2493C9.16148 22.8045 9.4391 23.3598 9.75638 23.915C9.99434 23.4787 10.272 23.0821 10.5496 22.6459C10.6289 22.0113 10.7479 21.3768 10.9065 20.7422C10.1926 21.2181 9.51842 21.7337 8.92351 22.2493ZM9.99434 24.3513C10.153 24.6289 10.3116 24.8669 10.4703 25.1445C10.4306 24.6289 10.4306 24.1133 10.4703 23.5977C10.272 23.8357 10.153 24.0737 9.99434 24.3513ZM10.5496 26.0567C10.272 25.6601 9.99434 25.2238 9.75638 24.7875C9.4391 25.3428 9.16148 25.898 8.92351 26.4533C9.55808 27.0085 10.2323 27.4844 10.9462 27.9603C10.7479 27.3258 10.6289 26.6912 10.5496 26.0567ZM6.82153 16.8952C6.58357 15.6261 6.46459 14.3966 6.46459 13.1671C5.11615 13.6827 3.80737 14.3569 2.61757 15.1501L6.82153 16.8952ZM7.53541 17.2125C8.13031 16.8159 8.72521 16.4589 9.35978 16.1416C9.99434 15.8244 10.6289 15.5071 11.2635 15.2295C11.3428 16.2606 11.5411 17.3314 11.779 18.3626C11.6997 18.5212 11.6204 18.6799 11.5411 18.8782L7.53541 17.2125ZM6.66289 17.2918C5.63173 18.0057 4.64023 18.8385 3.76771 19.6714C3.17281 18.3229 2.73655 16.9745 2.45893 15.5467L6.66289 17.2918ZM3.96601 28.6742C4.83853 29.5467 5.83003 30.3796 6.94051 31.1331C7.09915 30.4193 7.29745 29.7054 7.49575 28.9518C7.73371 28.238 7.97167 27.5241 8.28895 26.8102C7.61473 26.2153 6.94051 25.5411 6.34561 24.8669C5.39377 26.0567 4.60057 27.3258 3.96601 28.6742ZM7.53541 31.5297C8.13031 31.9263 8.72521 32.2833 9.35978 32.6006C9.99434 32.9178 10.6289 33.2351 11.2635 33.4731C11.3428 32.4419 11.5411 31.3711 11.779 30.3399C11.6997 30.1813 11.6204 30.0227 11.5411 29.8244L7.53541 31.5297ZM11.9377 33.7507C12.5326 33.9887 13.0878 34.187 13.7224 34.3456C13.6034 33.8697 13.4844 33.3938 13.4051 32.8782C13.0085 32.3626 12.6516 31.847 12.3343 31.2521C12.136 32.085 12.017 32.9178 11.9377 33.7507ZM14.1983 34.4646C14.4759 34.5439 14.7932 34.6232 15.0708 34.6629C14.6742 34.3059 14.3173 33.949 13.9603 33.5524C14.0397 33.8697 14.0793 34.187 14.1983 34.4646ZM15.7847 35.2578C15.3088 35.1785 14.8329 35.0595 14.3173 34.9405C14.4759 35.5354 14.6742 36.1303 14.9122 36.7252C15.745 36.6459 16.5779 36.5269 17.3711 36.3683C16.8159 36.0113 16.2606 35.6544 15.7847 35.2578ZM6.66289 31.4504C5.59207 30.7365 4.64023 29.9037 3.76771 29.0708C3.17281 30.3796 2.73655 31.7677 2.45893 33.1955L6.66289 31.4504ZM7.37677 31.1331C7.53541 30.4589 7.69405 29.7847 7.89235 29.0708C8.09065 28.3966 8.32861 27.762 8.60623 27.0878C9.39944 27.762 10.272 28.3966 11.1841 28.9122C11.2635 29.0708 11.3031 29.2691 11.3824 29.4278L7.37677 31.1331ZM6.82153 31.8074C6.58357 33.0765 6.46459 34.3059 6.46459 35.5354C5.11615 35.0198 3.80737 34.3456 2.61757 33.5524L6.82153 31.8074ZM12.9688 41.762C14.1983 41.762 15.5071 41.6431 16.8159 41.4051C16.4193 40.8102 16.0227 40.136 15.7054 39.4618C15.3484 38.7875 15.0312 38.1133 14.7535 37.3994C13.8414 37.4787 12.9292 37.4391 12.017 37.3994C12.136 38.9065 12.4929 40.3739 12.9688 41.762ZM17.5297 41.2465C18.204 41.0878 18.9178 40.9292 19.5921 40.6912C20.2663 40.4929 20.9009 40.255 21.5751 39.9773C20.9009 39.1841 20.2663 38.3116 19.7507 37.3994C19.5921 37.3201 19.3938 37.2804 19.2351 37.2011L17.5297 41.2465ZM22.2096 39.7394C22.7649 39.5014 23.3201 39.2238 23.8754 38.9065C23.4391 38.6685 23.0425 38.3909 22.6062 38.1133C21.9717 38.034 21.3371 37.915 20.7026 37.7564C21.1785 38.4306 21.6544 39.1048 22.2096 39.7394ZM24.3116 38.6685C24.5892 38.5099 24.8272 38.3513 25.1048 38.1926C24.5892 38.2323 24.0737 38.2323 23.5581 38.1926C23.7564 38.3513 24.034 38.5099 24.3116 38.6685ZM25.9773 38.1133C25.5807 38.3909 25.1445 38.6685 24.7082 38.9065C25.2635 39.2238 25.8187 39.4617 26.3739 39.7394C26.8895 39.1048 27.4051 38.4306 27.881 37.7167C27.2861 37.8753 26.6516 38.034 25.9773 38.1133ZM16.8555 41.8414C15.5864 42.0793 14.3569 42.1983 13.1275 42.1983C13.6431 43.5467 14.3173 44.8555 15.1105 46.0453L16.8555 41.8414ZM17.1331 41.0878C16.7365 40.4929 16.3796 39.898 16.0623 39.2635C15.745 38.6289 15.4278 37.9943 15.1501 37.3598C16.1813 37.2804 17.2521 37.0821 18.2833 36.8442C18.4419 36.9235 18.6006 37.0028 18.7989 37.0821L17.1331 41.0878ZM17.2125 42C17.9263 43.0708 18.7592 44.0227 19.5921 44.8952C18.2833 45.4901 16.8952 45.9263 15.4674 46.204L17.2125 42ZM28.5949 44.6572C29.4674 43.7847 30.3003 42.7932 31.0538 41.6827C30.3399 41.5241 29.6261 41.3258 28.9122 41.1275C28.1983 40.8895 27.4844 40.6516 26.7705 40.3343C26.1756 41.0085 25.5014 41.6827 24.8272 42.2776C25.9773 43.2295 27.2465 44.0227 28.5949 44.6572ZM41.2068 31.1331C41.0482 30.4589 40.8895 29.745 40.6516 29.0708C40.4533 28.3966 40.2153 27.762 39.9377 27.0878C39.1445 27.762 38.272 28.3569 37.3598 28.9122C37.2805 29.0708 37.2408 29.2691 37.1615 29.4278L41.2068 31.1331ZM39.6601 26.4533C39.4221 25.898 39.1445 25.3428 38.8272 24.7875C38.5892 25.2238 38.3116 25.6204 38.034 26.0567C37.9547 26.6912 37.8357 27.3258 37.6771 27.9603C38.3513 27.4844 39.0255 26.9688 39.6601 26.4533ZM38.5892 24.3513C38.4306 24.0737 38.272 23.8357 38.1133 23.5581C38.153 24.0737 38.153 24.5892 38.1133 25.1048C38.272 24.8668 38.4306 24.5892 38.5892 24.3513ZM38.034 22.6459C38.3116 23.0425 38.5892 23.4787 38.8272 23.915C39.1445 23.3598 39.4221 22.8045 39.6601 22.2493C39.0255 21.7337 38.3513 21.2181 37.6771 20.7422C37.8357 21.3768 37.9547 22.0113 38.034 22.6459ZM41.9207 31.4108C42.9915 30.6969 43.9433 29.864 44.8159 29.0312C45.4108 30.3399 45.847 31.728 46.1246 33.1558L41.9207 31.4108ZM44.6176 20.0283C43.745 19.1558 42.7139 18.3229 41.6431 17.5694C41.4844 18.2833 41.3258 18.9972 41.0878 19.711C40.8499 20.4249 40.6119 21.1388 40.2946 21.8527C41.0085 22.4476 41.6431 23.1218 42.238 23.796C43.1501 22.6459 43.9433 21.3768 44.6176 20.0283ZM41.0482 17.1728C40.4533 16.7762 39.8584 16.4193 39.2238 16.102C38.6289 15.7847 37.9547 15.4674 37.3201 15.1898C37.2408 16.221 37.0425 17.2918 36.8045 18.3229C36.8839 18.4816 36.9632 18.6799 37.0425 18.8385L41.0482 17.1728ZM36.6459 14.9518C36.051 14.7139 35.4561 14.5156 34.8612 14.3569C34.9802 14.8329 35.0992 15.3088 35.1785 15.8244C35.5751 16.3399 35.932 16.8952 36.2493 17.4504C36.4476 16.6176 36.5666 15.7847 36.6459 14.9518ZM34.3853 14.238C34.1077 14.1586 33.7904 14.0793 33.5127 14.0397C33.9094 14.3966 34.2663 14.7535 34.6232 15.1501C34.5439 14.7932 34.4646 14.5156 34.3853 14.238ZM32.7989 13.4448C33.2748 13.5241 33.7507 13.6431 34.2266 13.762C34.068 13.1671 33.8697 12.5722 33.6317 11.9773C32.7989 12.0567 32.0057 12.1756 31.1728 12.3343C31.7677 12.6516 32.3229 13.0482 32.7989 13.4448ZM41.9207 17.2521C42.9915 17.966 43.9433 18.7989 44.8159 19.6317C45.4108 18.3229 45.847 16.9348 46.1246 15.5071L41.9207 17.2521ZM41.1671 17.5694C41.0085 18.2436 40.8499 18.9575 40.6119 19.6317C40.4136 20.3059 40.1756 20.9405 39.898 21.6147C39.1048 20.9405 38.2323 20.3059 37.3201 19.7904C37.2408 19.6317 37.2011 19.4334 37.1218 19.2748L41.1671 17.5694ZM41.762 16.8952C42 15.6261 42.119 14.3966 42.119 13.1671C43.4674 13.6827 44.7762 14.3569 45.966 15.1501L41.762 16.8952ZM35.6147 6.94051C34.3456 6.94051 33.0765 7.05949 31.7677 7.29745C32.1643 7.93201 32.5609 8.56657 32.8782 9.20113C33.2351 9.87535 33.5524 10.5496 33.83 11.2635C34.7422 11.1841 35.6544 11.2238 36.5666 11.2635C36.4476 9.79603 36.0907 8.32861 35.6147 6.94051ZM31.0538 7.41643C30.3796 7.57507 29.6657 7.73371 28.9915 7.97167C28.3173 8.16997 27.6827 8.40793 27.0085 8.68555C27.6827 9.47875 28.2776 10.3513 28.8329 11.2635C28.9915 11.3428 29.1898 11.3824 29.3484 11.4618L31.0538 7.41643ZM31.728 6.86119C32.9972 6.62323 34.2266 6.50425 35.4561 6.50425C34.9405 5.15581 34.2663 3.84703 33.4731 2.65723L31.728 6.86119ZM31.4108 7.57507C31.8074 8.16997 32.1643 8.76487 32.4816 9.39943C32.7989 10.034 33.1161 10.6686 33.3938 11.3031C32.3626 11.3824 31.2918 11.5807 30.2606 11.8187C30.102 11.7394 29.9037 11.6601 29.745 11.5807L31.4108 7.57507ZM31.3711 6.70255C30.6572 5.63173 29.8244 4.67989 28.9915 3.80737C30.3003 3.21247 31.6884 2.77621 33.1161 2.49859L31.3711 6.70255Z" fill="white"/>
</svg>
