<svg width="30" height="30" viewBox="0 0 30 30" fill="none" xmlns="http://www.w3.org/2000/svg">
<circle cx="15" cy="15" r="15" fill="white"/>
<path d="M20.6569 17.3431C19.7855 16.4718 18.7484 15.8268 17.6168 15.4363C18.8288 14.6016 19.625 13.2046 19.625 11.625C19.625 9.07478 17.5502 7 15 7C12.4498 7 10.375 9.07478 10.375 11.625C10.375 13.2046 11.1712 14.6016 12.3832 15.4363C11.2516 15.8268 10.2145 16.4718 9.34316 17.3431C7.83216 18.8542 7 20.8631 7 23H8.25C8.25 19.278 11.278 16.25 15 16.25C18.722 16.25 21.75 19.278 21.75 23H23C23 20.8631 22.1678 18.8542 20.6569 17.3431ZM15 15C13.139 15 11.625 13.486 11.625 11.625C11.625 9.764 13.139 8.25 15 8.25C16.861 8.25 18.375 9.764 18.375 11.625C18.375 13.486 16.861 15 15 15Z" fill="black"/>
</svg>
