<svg width="19" height="24" viewBox="0 0 19 24" fill="none" xmlns="http://www.w3.org/2000/svg">
<path d="M0 1.04348C0 8.34783 0 15.6522 0 22.9565C3.67742 19.2 7.15054 15.6522 10.828 11.8957C7.15054 8.34783 3.67742 4.5913 0 1.04348Z" fill="white"/>
<path d="M14.5054 8.34783C14.3011 8.34783 14.3011 8.34783 14.5054 8.34783C10.4194 5.63478 6.53766 3.13043 2.45164 0.626087C2.24734 0.417391 1.83874 0.208696 1.63443 0.208696C1.43013 0 1.22583 0 0.81723 0C4.49465 3.75652 8.17207 7.51304 11.6452 11.0609C12.6667 10.2261 13.4839 9.3913 14.5054 8.34783Z" fill="white"/>
<path d="M0.81723 24.0002C1.22583 24.0002 1.43013 24.0002 1.83873 23.7915C2.65594 23.1654 3.67745 22.5393 4.49465 22.122C7.76347 20.035 11.0323 17.948 14.3011 15.8611C14.3011 15.8611 14.3011 15.8611 14.5054 15.8611C13.4839 14.6089 12.6667 13.7741 11.6452 12.9393C8.17207 16.4872 4.49465 20.2437 0.81723 24.0002Z" fill="white"/>
<path d="M18.3871 11.0613C17.3656 10.4352 16.5484 9.80912 15.5269 9.18303C15.3226 9.18303 15.3226 9.18303 15.3226 9.18303C14.914 9.60042 14.5054 9.80912 14.3011 10.2265C13.6881 10.8526 13.0752 11.27 12.4623 11.8961C13.4838 12.9396 14.5054 13.7743 15.5269 14.8178C16.5484 14.1917 17.5699 13.5656 18.5914 12.7309C19.2043 12.5222 19 11.4787 18.3871 11.0613Z" fill="white"/>
</svg>
