<svg width="189" height="189" viewBox="0 0 189 189" fill="none" xmlns="http://www.w3.org/2000/svg">
<path d="M121.721 6.23565L130.818 9.59767L139.514 13.8922L147.714 19.0722L155.327 25.0809L162.271 31.8525L168.468 39.3128L173.852 47.3801L178.363 55.966L181.952 64.9762L184.58 74.3124L186.217 83.872L186.846 93.5504L186.459 103.242L185.062 112.839L182.67 122.238L179.308 131.336L175.013 140.032L169.833 148.231L163.825 155.845L157.053 162.788L149.593 168.986L141.525 174.369L132.939 178.881L123.929 182.469L114.593 185.097L105.033 186.734L95.355 187.363L85.6638 186.977L76.0664 185.58L66.6672 183.187L57.5698 179.825L48.8737 175.531L40.674 170.35L33.0608 164.342L26.1173 157.57L19.9197 150.11L14.5359 142.043L10.0247 133.457L6.43589 124.446L3.80845 115.11L2.17133 105.551L1.54242 95.8723L1.92863 86.1812L3.32571 76.5836L5.71836 67.1846L9.08037 58.0871L13.3749 49.3909L18.5549 41.1913L24.5636 33.5781L31.3353 26.6346L38.7955 20.437L46.8628 15.0532L55.4486 10.5421L64.459 6.95317L73.7951 4.32575L83.3547 2.68862L93.0331 2.05971L102.724 2.44592L112.322 3.843L121.721 6.23565Z" stroke="#FFD200" stroke-width="3"/>
</svg>
